<svg width="1024" height="1024" viewBox="0 0 1024 1024" fill="none" xmlns="http://www.w3.org/2000/svg">
<path d="M487.857 372.929C491.394 372.727 494.933 372.584 498.475 372.501C497.509 381.929 497.999 391.736 497.999 401.221L498.003 450.761L497.978 620.987L168.321 621.059L95.7743 620.976C88.1139 620.958 63.9782 621.593 58.0066 619.903C57.212 619.411 56.8858 619.077 56.4355 618.226C55.1354 615.768 55.1395 611.481 55.0761 608.72C54.8896 600.595 55.3198 592.384 55.3651 584.249L55.4818 529.614L55.4359 437.563C55.4027 425.973 53.7308 383.138 56.4986 374.786C58.5438 373.099 60.8984 373.055 63.4481 372.973C86.6481 372.228 109.988 372.922 133.203 372.932L269.195 372.883L428.198 372.806C448.049 372.904 468.025 372.263 487.857 372.929ZM58.3382 617.226C61.1193 617.645 63.8153 618.017 66.632 618.093C108.937 618.862 151.331 618.035 193.657 618.048L495.353 618.114C495.656 589.716 495.099 561.254 495.158 532.843C495.501 480.225 495.545 427.606 495.291 374.987L299.13 374.827L131.889 375.056L85.602 374.984C76.8878 374.984 67.2486 374.204 58.6614 375.817C56.2399 379.199 57.6546 418.502 57.7114 426.019C57.9921 469.842 58.0371 513.665 57.8464 557.488C57.8285 568.944 57.7394 580.399 57.5791 591.854C57.4934 599.792 56.924 608.279 58.1292 616.126C58.1859 616.495 58.2639 616.86 58.3382 617.226Z" fill="#FF8D00"/>
<path d="M77.6819 395.284C84.4788 394.866 91.4176 395.173 98.2289 395.215L134.524 395.419L167.491 395.496C180.684 395.471 193.644 395.101 206.672 397.676C228.276 401.947 248.019 413.323 260.29 431.942C277.219 457.63 279.284 493.834 273.175 523.338C267.787 549.357 254.464 570.23 232.231 584.885C222.08 591.278 209.602 594.719 197.839 596.474C181.28 598.944 164.176 598.022 147.478 597.997L74.875 598.119C83.6987 589.627 94.9733 582.234 104.94 575.078C105.259 548.71 105.032 522.309 105.032 495.938C105.033 470.432 105.27 444.903 104.942 419.401C97.4094 413.307 89.4517 407.733 81.9428 401.61C80.1947 400.185 77.0023 398.14 76.7651 395.792L77.6819 395.284ZM134.083 572.028L164.732 572.078C187.474 572.114 208.672 571.226 225.727 554.096L226.212 553.602C242.933 534.22 245.856 508.729 244.102 483.98C242.76 465.052 236.836 447.352 222.059 434.672C205.712 420.645 185.37 420.352 164.949 420.402C154.691 420.482 144.432 420.49 134.174 420.424C133.763 455.379 134.47 490.408 134.51 525.374C134.528 540.714 135.507 556.79 134.083 572.028Z" fill="#FF8D00"/>
<path d="M383.194 391.703C398.51 389.762 422.797 395.73 436.175 403.459C455.188 414.444 462.639 431.804 468.081 452.235C459.006 454.657 448.96 455.465 439.627 456.671C437.406 449.103 434.884 441.739 429.498 435.781C419.282 424.484 402.012 419.558 387.242 419.004C372.949 418.468 355.215 421.799 344.421 431.897C339.566 436.439 336.054 442.687 335.963 449.453C335.844 458.183 341.885 464.43 349.149 468.28C360.336 474.21 374.324 475.871 386.606 478.507C407.725 483.039 447.61 492.853 462.573 508.503C470.226 516.507 472.401 527.603 472.058 538.35C471.578 553.409 464.532 567.568 453.535 577.7C433.519 596.142 404.325 600.055 378.125 599.111C357.331 598.258 335.496 593.629 319.63 579.262C305.312 566.296 301.192 549.458 300.291 530.816C310.298 528.602 320.138 525.898 330.013 523.17C329.954 527.103 329.814 531.088 330.118 535.012C330.86 544.579 334.527 553.674 342.001 559.936C355.18 570.977 376.821 572.989 393.262 571.561C406.442 570.416 425.737 566.52 434.648 555.631C439.236 550.026 441.961 542.185 441.137 534.903C440.494 529.219 437.239 524.922 432.48 521.909C425.594 517.55 416.723 515.74 408.897 513.776C400.074 511.522 391.207 509.441 382.302 507.536C362.4 503.346 339.675 500.409 323.31 487.41C313.48 479.602 307.51 468.628 306.191 456.148C304.776 442.765 308.141 429.199 316.742 418.705C333.177 398.654 358.836 394.127 383.194 391.703Z" fill="#FF8D00"/>
<path d="M58.0066 619.903C57.212 619.411 56.8858 619.077 56.4355 618.226C55.1354 615.768 55.1395 611.481 55.0761 608.72C54.8896 600.595 55.3198 592.384 55.3651 584.249L55.4818 529.614L55.4359 437.563C55.4027 425.973 53.7308 383.138 56.4986 374.786C58.5438 373.099 60.8984 373.055 63.4481 372.973C86.6481 372.228 109.988 372.922 133.203 372.932L269.195 372.883L428.198 372.806C448.049 372.904 468.025 372.263 487.857 372.929C483.128 374.957 450.027 373.727 442.282 373.719C413.319 373.648 384.356 373.747 355.394 374.017C349.75 374.082 344.141 374.699 338.494 374.737C333.999 374.767 300.977 373.69 299.13 374.827L131.889 375.056L85.602 374.984C76.8878 374.984 67.2486 374.204 58.6614 375.817C56.2399 379.199 57.6546 418.502 57.7114 426.019C57.9921 469.842 58.0371 513.665 57.8464 557.488C57.8285 568.944 57.7394 580.399 57.5791 591.854C57.4934 599.792 56.924 608.279 58.1292 616.126C58.1859 616.495 58.2639 616.86 58.3382 617.226C61.1193 617.645 63.8153 618.017 66.632 618.093C63.927 620.515 61.2188 618.966 58.0066 619.903Z" fill="#FF8D00"/>
<path d="M884.492 450.762C889.13 455.791 907.25 509.678 910.74 519.956C913.877 509.652 917.888 499.522 921.409 489.335C925.653 477.053 929.486 464.253 934.905 452.443C944.47 452.358 954.036 452.371 963.602 452.484C957.78 468.862 950.868 485.003 944.399 501.146L911.57 583.855C909.452 575.596 905.781 567.371 902.708 559.403L886.467 517.812L884.559 512.788C881.408 521.767 877.501 530.525 874.136 539.434C868.459 554.461 863.204 569.546 856.629 584.215C853.289 572.751 848.872 561.434 844.713 550.247L822.24 490.618C817.447 478.016 812.277 465.365 808.212 452.513L834.923 452.478L858.585 517.057C862.367 508.059 865.612 498.778 869.146 489.672L884.492 450.762Z" fill="#363062"/>
<path d="M635.761 399.515C645.103 399.292 654.517 399.099 663.853 399.493C657.974 415.031 651.428 432.432 644.935 447.672C636.923 468.745 627.817 489.368 619.655 510.374C614.187 524.645 608.538 538.845 602.708 552.971C598.452 563.403 594.415 573.85 589.006 583.757C582.229 573.3 577.864 560.576 573.407 548.982C568.825 536.858 564.136 524.775 559.341 512.734L534.796 451.523C527.834 434.379 520.652 417.27 514.405 399.851C516.799 399.901 519.207 399.8 521.601 399.759C528.309 399.961 534.9 399.309 541.61 400.158C548.149 413.302 552.825 428.046 558.121 441.757L588.956 521.746C595.008 507.166 600.072 492.299 605.757 477.588C615.987 451.652 625.989 425.627 635.761 399.515Z" fill="#363062"/>
<path d="M754.781 451.189C756.441 450.972 758.099 450.973 759.772 450.981C773.043 450.997 785.752 456.34 795.049 465.811C808.776 479.747 809.561 495.919 809.36 514.465C781.401 514.184 753.352 515.08 725.408 514.218C726.593 526.253 729.106 538.577 737.708 547.683C743.579 553.899 751.915 557.311 760.418 557.544C774.46 557.928 781.714 549.159 791.087 540.32C792.5 540.08 793.51 540.969 794.76 541.616C799.708 544.569 804.429 547.841 809.43 550.742C808.685 551.879 807.892 552.984 807.053 554.054C797.144 566.791 784.133 576.704 767.724 578.711C753.631 580.434 739.531 577.003 728.319 568.196C714.703 557.501 706.674 540.627 704.664 523.633C702.521 505.514 707.225 485.529 718.646 471.115C727.826 459.529 740.174 452.931 754.781 451.189ZM728.645 495.074C738.638 495.016 748.632 495.036 758.625 495.134L784.012 495.044C780.903 486.349 776.936 478.182 768.046 474.087C764.181 472.316 759.898 471.657 755.679 472.185C747.709 472.95 740.971 476.415 735.837 482.651C732.781 486.364 730.498 490.653 728.645 495.074Z" fill="#363062"/>
<path d="M693.388 454.26C694.302 454.248 694.563 454.314 695.376 454.635C696.128 455.776 696.18 457.09 696.212 458.424C696.561 473.207 696.094 488.211 696.027 503.019L696.088 575.992L666.875 575.98C666.285 576.001 665.669 575.876 665.082 575.803C664.275 574.562 664.124 573.257 664.035 571.806C663.356 560.833 664.49 549.349 664.506 538.308L664.554 454.448L693.388 454.26Z" fill="#363062"/>
<path d="M679.905 405.74C687.584 404.519 694.796 409.766 695.996 417.448C697.197 425.131 691.93 432.327 684.244 433.507C676.588 434.681 669.426 429.44 668.23 421.787C667.034 414.135 672.256 406.957 679.905 405.74Z" fill="#363062"/>
</svg>
